<svg data-v-fde0c5aa="" xmlns="http://www.w3.org/2000/svg" viewBox="0 0 300 300" class="font"><!----><defs data-v-fde0c5aa=""><!----></defs><rect data-v-fde0c5aa="" fill="transparent" x="0" y="0" width="300px" height="300px" class="logo-background-square"></rect><defs data-v-fde0c5aa=""><linearGradient data-v-fde0c5aa="" gradientTransform="rotate(25)" id="9c1abb39-61e9-48ed-b681-1cab401eab25" x1="0%" y1="0%" x2="100%" y2="0%"><stop data-v-fde0c5aa="" offset="0%" stop-color="#E98E0D" stop-opacity="1"></stop><stop data-v-fde0c5aa="" offset="100%" stop-color="#1536F1" stop-opacity="1"></stop></linearGradient></defs><g data-v-fde0c5aa="" id="d839a977-2526-4692-a2c7-ff7e2e68860c" fill="url(#9c1abb39-61e9-48ed-b681-1cab401eab25)" transform="matrix(3.135243063143815,0,0,3.135243063143815,39.435656226209105,108.1131522577985)"><path d="M6.10 17.18L5.59 15.34L2.44 15.34L1.90 17.18L0.18 17.18L2.69 8.43L5.32 8.43L7.83 17.18L6.10 17.18ZM2.80 14.03L5.21 14.03L4.07 10.04L3.95 10.04L2.80 14.03ZM9.97 10.18L10.53 11.24Q11.10 10.71 11.56 10.41Q12.03 10.11 12.47 9.97L12.47 9.97L12.63 11.65Q12.19 11.77 11.68 12.01Q11.17 12.24 10.86 12.47L10.86 12.47L10.86 17.18L9.14 17.18L9.14 10.18L9.97 10.18ZM18.90 10.18L19.71 10.18L19.71 19.45L17.99 19.61L17.99 17.08Q17.39 17.39 16.17 17.39L16.17 17.39Q15.13 17.39 14.57 17.06Q14.01 16.73 13.78 15.94Q13.54 15.15 13.54 13.68L13.54 13.68Q13.54 12.22 13.77 11.45Q14.00 10.67 14.56 10.35Q15.12 10.02 16.17 10.02L16.17 10.02Q17.11 10.02 17.66 10.19Q18.21 10.36 18.54 10.79L18.54 10.79L18.90 10.18ZM17.36 16.02Q17.72 16.02 17.86 15.95Q17.99 15.88 17.99 15.67L17.99 15.67L17.99 11.38L15.97 11.38Q15.62 11.38 15.49 11.45Q15.36 11.52 15.36 11.69L15.36 11.69L15.36 16.02L17.36 16.02ZM27.85 10.18L27.85 17.18L27.02 17.18L26.57 16.48Q25.45 17.33 23.81 17.33L23.81 17.33Q22.82 17.33 22.37 16.95Q21.91 16.56 21.91 15.74L21.91 15.74L21.91 10.18L23.63 10.18L23.63 16.07L25.07 16.07Q25.68 16.07 25.90 15.92Q26.12 15.76 26.12 15.36L26.12 15.36L26.12 10.18L27.85 10.18ZM29.96 17.18L29.96 17.18ZM30.10 10.33L31.82 10.09L31.82 17.18L30.10 17.18L30.10 10.33ZM30.97 9.10Q30.38 9.10 30.17 8.90Q29.96 8.69 29.96 8.12L29.96 8.12Q29.96 7.53 30.18 7.32Q30.39 7.11 30.97 7.11L30.97 7.11Q31.54 7.11 31.75 7.32Q31.95 7.53 31.95 8.12L31.95 8.12Q31.95 8.69 31.75 8.90Q31.56 9.10 30.97 9.10L30.97 9.10ZM33.08 8.43L34.80 8.43L36.71 15.57L36.83 15.57L38.72 8.43L40.45 8.43L38.08 17.18L35.45 17.18L33.08 8.43ZM41.57 17.18L41.57 17.18ZM41.71 10.33L43.43 10.09L43.43 17.18L41.71 17.18L41.71 10.33ZM42.57 9.10Q41.99 9.10 41.78 8.90Q41.57 8.69 41.57 8.12L41.57 8.12Q41.57 7.53 41.78 7.32Q42 7.11 42.57 7.11L42.57 7.11Q43.15 7.11 43.35 7.32Q43.55 7.53 43.55 8.12L43.55 8.12Q43.55 8.69 43.36 8.90Q43.16 9.10 42.57 9.10L42.57 9.10ZM45.26 12.12Q45.26 11.02 45.93 10.49Q46.61 9.97 48.02 9.97L48.02 9.97Q49.35 9.97 50.50 10.28L50.50 10.28L50.27 11.51Q49.50 11.30 48.58 11.30L48.58 11.30Q47.78 11.30 47.08 11.42L47.08 11.42L47.08 12.81Q48.66 13.02 49.46 13.27Q50.25 13.52 50.55 13.95Q50.85 14.38 50.85 15.16L50.85 15.16Q50.85 16.37 50.14 16.88Q49.43 17.39 47.78 17.39L47.78 17.39Q46.47 17.39 45.12 16.97L45.12 16.97L45.37 15.64Q46.42 16.06 47.66 16.06L47.66 16.06Q48.31 16.06 49.03 15.89L49.03 15.89L49.03 14.49Q47.33 14.27 46.56 14.03Q45.79 13.79 45.53 13.38Q45.26 12.96 45.26 12.12L45.26 12.12ZM52.42 17.18L52.42 17.18ZM52.56 10.33L54.28 10.09L54.28 17.18L52.56 17.18L52.56 10.33ZM53.42 9.10Q52.84 9.10 52.63 8.90Q52.42 8.69 52.42 8.12L52.42 8.12Q52.42 7.53 52.63 7.32Q52.85 7.11 53.42 7.11L53.42 7.11Q54.00 7.11 54.20 7.32Q54.40 7.53 54.40 8.12L54.40 8.12Q54.40 8.69 54.21 8.90Q54.01 9.10 53.42 9.10L53.42 9.10ZM59.35 17.33Q58.09 17.33 57.41 17.01Q56.73 16.69 56.44 15.91Q56.15 15.13 56.15 13.68L56.15 13.68Q56.15 12.22 56.44 11.45Q56.73 10.67 57.41 10.35Q58.09 10.02 59.35 10.02L59.35 10.02Q60.62 10.02 61.30 10.35Q61.98 10.67 62.26 11.45Q62.54 12.22 62.54 13.68L62.54 13.68Q62.54 15.13 62.25 15.91Q61.96 16.69 61.29 17.01Q60.61 17.33 59.35 17.33L59.35 17.33ZM57.97 15.97L60.09 15.97Q60.47 15.97 60.60 15.90Q60.73 15.82 60.73 15.61L60.73 15.61L60.73 11.38L58.62 11.38Q58.24 11.38 58.11 11.46Q57.97 11.54 57.97 11.75L57.97 11.75L57.97 15.97ZM64.41 17.18L64.41 10.18L65.23 10.18L65.69 10.88Q66.23 10.44 66.89 10.23Q67.54 10.02 68.33 10.02L68.33 10.02Q69.31 10.02 69.83 10.35Q70.35 10.68 70.35 11.31L70.35 11.31L70.35 17.18L68.63 17.18L68.63 11.44L67.17 11.44Q66.57 11.44 66.35 11.59Q66.14 11.75 66.14 12.15L66.14 12.15L66.14 17.18L64.41 17.18Z"></path></g><!----><!----></svg>